<?xml version="1.0" encoding="UTF-8" standalone="no"?>
<!DOCTYPE svg PUBLIC "-//W3C//DTD SVG 1.1//EN"
 "http://www.w3.org/Graphics/SVG/1.1/DTD/svg11.dtd">
<!-- Generated by graphviz version 2.40.1 (0)
 -->
<!-- Title: pipeline_dag_20250724_123439 Pages: 1 -->
<svg width="466pt" height="947pt"
 viewBox="0.00 0.00 465.69 947.00" xmlns="http://www.w3.org/2000/svg" xmlns:xlink="http://www.w3.org/1999/xlink">
<g id="graph0" class="graph" transform="scale(1 1) rotate(0) translate(4 943)">
<title>pipeline_dag_20250724_123439</title>
<polygon fill="#ffffff" stroke="transparent" points="-4,4 -4,-943 461.6897,-943 461.6897,4 -4,4"/>
<!-- v0 -->
<g id="node1" class="node">
<title>v0</title>
<ellipse fill="#000000" stroke="#000000" cx="233.6897" cy="-920.4" rx="3.6" ry="3.6"/>
<text text-anchor="middle" x="180.0897" y="-927.8" font-family="Times,serif" font-size="14.00" fill="#000000">Channel.fromPath</text>
</g>
<!-- v1 -->
<g id="node2" class="node">
<title>v1</title>
<ellipse fill="none" stroke="#000000" cx="233.6897" cy="-876.2" rx="3.5" ry="3.5"/>
<text text-anchor="middle" x="217.6897" y="-883.5" font-family="Times,serif" font-size="14.00" fill="#000000">map</text>
</g>
<!-- v0&#45;&gt;v1 -->
<g id="edge1" class="edge">
<title>v0&#45;&gt;v1</title>
<path fill="none" stroke="#000000" d="M233.6897,-916.6315C233.6897,-910.8252 233.6897,-899.3965 233.6897,-890.167"/>
<polygon fill="#000000" stroke="#000000" points="237.1898,-889.9589 233.6897,-879.9589 230.1898,-889.959 237.1898,-889.9589"/>
</g>
<!-- v4 -->
<g id="node3" class="node">
<title>v4</title>
<ellipse fill="none" stroke="#000000" cx="233.6897" cy="-803.6" rx="106.6812" ry="18"/>
<text text-anchor="middle" x="233.6897" y="-799.9" font-family="Times,serif" font-size="14.00" fill="#000000">CHECK_FNA_HEADERS</text>
</g>
<!-- v1&#45;&gt;v4 -->
<g id="edge2" class="edge">
<title>v1&#45;&gt;v4</title>
<path fill="none" stroke="#000000" d="M233.6897,-872.6984C233.6897,-865.334 233.6897,-847.6304 233.6897,-831.9875"/>
<polygon fill="#000000" stroke="#000000" points="237.1898,-831.6393 233.6897,-821.6393 230.1898,-831.6394 237.1898,-831.6393"/>
<text text-anchor="middle" x="257.1897" y="-843.4" font-family="Times,serif" font-size="14.00" fill="#000000">fna_files</text>
</g>
<!-- v5 -->
<g id="node6" class="node">
<title>v5</title>
<ellipse fill="none" stroke="#000000" cx="296.6897" cy="-731.1" rx="3.5" ry="3.5"/>
<text text-anchor="middle" x="269.1897" y="-738.4" font-family="Times,serif" font-size="14.00" fill="#000000">combine</text>
</g>
<!-- v4&#45;&gt;v5 -->
<g id="edge5" class="edge">
<title>v4&#45;&gt;v5</title>
<path fill="none" stroke="#000000" d="M249.2628,-785.6786C261.3328,-771.7886 277.6365,-753.0263 287.6436,-741.5102"/>
<polygon fill="#000000" stroke="#000000" points="290.4201,-743.6511 294.3374,-733.807 285.1363,-739.0596 290.4201,-743.6511"/>
</g>
<!-- v2 -->
<g id="node4" class="node">
<title>v2</title>
<ellipse fill="#000000" stroke="#000000" cx="361.6897" cy="-876.2" rx="3.6" ry="3.6"/>
<text text-anchor="middle" x="308.0897" y="-883.6" font-family="Times,serif" font-size="14.00" fill="#000000">Channel.fromPath</text>
</g>
<!-- v3 -->
<g id="node5" class="node">
<title>v3</title>
<ellipse fill="none" stroke="#000000" cx="361.6897" cy="-803.6" rx="3.5" ry="3.5"/>
<text text-anchor="middle" x="370.6897" y="-810.9" font-family="Times,serif" font-size="14.00" fill="#000000">map</text>
</g>
<!-- v2&#45;&gt;v3 -->
<g id="edge3" class="edge">
<title>v2&#45;&gt;v3</title>
<path fill="none" stroke="#000000" d="M361.6897,-872.2967C361.6897,-862.1576 361.6897,-834.597 361.6897,-817.6256"/>
<polygon fill="#000000" stroke="#000000" points="365.1898,-817.1754 361.6897,-807.1755 358.1898,-817.1755 365.1898,-817.1754"/>
</g>
<!-- v3&#45;&gt;v5 -->
<g id="edge4" class="edge">
<title>v3&#45;&gt;v5</title>
<path fill="none" stroke="#000000" d="M359.8167,-800.421C357.5844,-796.7258 353.6559,-790.5074 349.6897,-785.6 335.9494,-768.5989 317.8039,-750.784 306.7046,-740.3246"/>
<polygon fill="#000000" stroke="#000000" points="309.002,-737.6817 299.2899,-733.448 304.242,-742.8142 309.002,-737.6817"/>
<text text-anchor="middle" x="365.6897" y="-756.4" font-family="Times,serif" font-size="14.00" fill="#000000">cm_models</text>
</g>
<!-- v6 -->
<g id="node7" class="node">
<title>v6</title>
<ellipse fill="none" stroke="#000000" cx="296.6897" cy="-658.6" rx="59.2899" ry="18"/>
<text text-anchor="middle" x="296.6897" y="-654.9" font-family="Times,serif" font-size="14.00" fill="#000000">CMSEARCH</text>
</g>
<!-- v5&#45;&gt;v6 -->
<g id="edge6" class="edge">
<title>v5&#45;&gt;v6</title>
<path fill="none" stroke="#000000" d="M296.6897,-727.2021C296.6897,-719.6027 296.6897,-702.203 296.6897,-686.8295"/>
<polygon fill="#000000" stroke="#000000" points="300.1898,-686.6553 296.6897,-676.6553 293.1898,-686.6553 300.1898,-686.6553"/>
<text text-anchor="middle" x="377.1897" y="-698.4" font-family="Times,serif" font-size="14.00" fill="#000000">sample_model_combinations</text>
</g>
<!-- v7 -->
<g id="node8" class="node">
<title>v7</title>
<ellipse fill="none" stroke="#000000" cx="296.6897" cy="-585.6" rx="72.2875" ry="18"/>
<text text-anchor="middle" x="296.6897" y="-581.9" font-family="Times,serif" font-size="14.00" fill="#000000">GET_CMSTATS</text>
</g>
<!-- v6&#45;&gt;v7 -->
<g id="edge7" class="edge">
<title>v6&#45;&gt;v7</title>
<path fill="none" stroke="#000000" d="M296.6897,-640.5551C296.6897,-632.4828 296.6897,-622.7764 296.6897,-613.7817"/>
<polygon fill="#000000" stroke="#000000" points="300.1898,-613.6903 296.6897,-603.6904 293.1898,-613.6904 300.1898,-613.6903"/>
</g>
<!-- v8 -->
<g id="node9" class="node">
<title>v8</title>
<ellipse fill="none" stroke="#000000" cx="277.6897" cy="-527.1" rx="3.5" ry="3.5"/>
<text text-anchor="middle" x="261.6897" y="-534.4" font-family="Times,serif" font-size="14.00" fill="#000000">map</text>
</g>
<!-- v7&#45;&gt;v8 -->
<g id="edge8" class="edge">
<title>v7&#45;&gt;v8</title>
<path fill="none" stroke="#000000" d="M290.7822,-567.4109C287.9131,-558.5771 284.5313,-548.1649 281.9235,-540.1356"/>
<polygon fill="#000000" stroke="#000000" points="285.2244,-538.9681 278.8065,-530.5383 278.5667,-541.1305 285.2244,-538.9681"/>
</g>
<!-- v19 -->
<g id="node21" class="node">
<title>v19</title>
<ellipse fill="none" stroke="#000000" cx="328.6897" cy="-502.1" rx="3.5" ry="3.5"/>
<text text-anchor="middle" x="312.6897" y="-509.4" font-family="Times,serif" font-size="14.00" fill="#000000">map</text>
</g>
<!-- v7&#45;&gt;v19 -->
<g id="edge22" class="edge">
<title>v7&#45;&gt;v19</title>
<path fill="none" stroke="#000000" d="M303.6333,-567.4817C309.7222,-551.5934 318.4204,-528.8966 323.8029,-514.8516"/>
<polygon fill="#000000" stroke="#000000" points="327.1039,-516.0184 327.4143,-505.4281 320.5675,-513.5133 327.1039,-516.0184"/>
</g>
<!-- v9 -->
<g id="node10" class="node">
<title>v9</title>
<ellipse fill="none" stroke="#000000" cx="201.6897" cy="-462.6" rx="105.8812" ry="18"/>
<text text-anchor="middle" x="201.6897" y="-458.9" font-family="Times,serif" font-size="14.00" fill="#000000">EXTRACT_SEQUENCES</text>
</g>
<!-- v8&#45;&gt;v9 -->
<g id="edge9" class="edge">
<title>v8&#45;&gt;v9</title>
<path fill="none" stroke="#000000" d="M274.8032,-524.6503C267.4672,-518.4243 247.4675,-501.4509 230.2367,-486.8274"/>
<polygon fill="#000000" stroke="#000000" points="232.4593,-484.1231 222.5702,-480.3209 227.9298,-489.4601 232.4593,-484.1231"/>
</g>
<!-- v10 -->
<g id="node11" class="node">
<title>v10</title>
<ellipse fill="none" stroke="#000000" cx="179.6897" cy="-383.6" rx="89.8845" ry="18"/>
<text text-anchor="middle" x="179.6897" y="-379.9" font-family="Times,serif" font-size="14.00" fill="#000000">BLAST_ANNOTATE</text>
</g>
<!-- v9&#45;&gt;v10 -->
<g id="edge10" class="edge">
<title>v9&#45;&gt;v10</title>
<path fill="none" stroke="#000000" d="M196.5872,-444.2772C193.8938,-434.6056 190.5307,-422.5289 187.5156,-411.7018"/>
<polygon fill="#000000" stroke="#000000" points="190.8191,-410.5178 184.7646,-401.8234 184.0757,-412.3958 190.8191,-410.5178"/>
</g>
<!-- v15 -->
<g id="node17" class="node">
<title>v15</title>
<ellipse fill="none" stroke="#000000" cx="297.6897" cy="-344.1" rx="3.5" ry="3.5"/>
<text text-anchor="middle" x="281.6897" y="-351.4" font-family="Times,serif" font-size="14.00" fill="#000000">map</text>
</g>
<!-- v9&#45;&gt;v15 -->
<g id="edge16" class="edge">
<title>v9&#45;&gt;v15</title>
<path fill="none" stroke="#000000" d="M231.1892,-445.2664C247.2348,-434.5046 266.2821,-419.3532 278.6897,-401.6 287.9948,-388.286 292.9888,-370.0991 295.486,-357.7705"/>
<polygon fill="#000000" stroke="#000000" points="298.9562,-358.2433 297.2183,-347.792 292.0594,-357.0459 298.9562,-358.2433"/>
</g>
<!-- v11 -->
<g id="node12" class="node">
<title>v11</title>
<ellipse fill="none" stroke="#000000" cx="145.6897" cy="-319.1" rx="3.5" ry="3.5"/>
<text text-anchor="middle" x="129.6897" y="-326.4" font-family="Times,serif" font-size="14.00" fill="#000000">map</text>
</g>
<!-- v10&#45;&gt;v11 -->
<g id="edge11" class="edge">
<title>v10&#45;&gt;v11</title>
<path fill="none" stroke="#000000" d="M170.2188,-365.6332C164.4567,-354.7021 157.2485,-341.0276 152.1409,-331.3382"/>
<polygon fill="#000000" stroke="#000000" points="155.0818,-329.4115 147.3225,-322.1974 148.8895,-332.6757 155.0818,-329.4115"/>
</g>
<!-- v17 -->
<g id="node19" class="node">
<title>v17</title>
<ellipse fill="none" stroke="#000000" cx="199.6897" cy="-294.1" rx="3.5" ry="3.5"/>
<text text-anchor="middle" x="183.6897" y="-301.4" font-family="Times,serif" font-size="14.00" fill="#000000">map</text>
</g>
<!-- v10&#45;&gt;v17 -->
<g id="edge19" class="edge">
<title>v10&#45;&gt;v17</title>
<path fill="none" stroke="#000000" d="M183.737,-365.4883C187.5558,-348.3994 193.1955,-323.1619 196.6458,-307.7217"/>
<polygon fill="#000000" stroke="#000000" points="200.1017,-308.305 198.8669,-297.7824 193.2702,-306.7784 200.1017,-308.305"/>
</g>
<!-- v12 -->
<g id="node13" class="node">
<title>v12</title>
<ellipse fill="none" stroke="#000000" cx="121.6897" cy="-269.1" rx="3.5" ry="3.5"/>
<text text-anchor="middle" x="99.6897" y="-276.4" font-family="Times,serif" font-size="14.00" fill="#000000">collect</text>
</g>
<!-- v11&#45;&gt;v12 -->
<g id="edge12" class="edge">
<title>v11&#45;&gt;v12</title>
<path fill="none" stroke="#000000" d="M144.115,-315.8194C140.8614,-309.0409 133.2457,-293.175 127.7925,-281.8141"/>
<polygon fill="#000000" stroke="#000000" points="130.7844,-279.9589 123.3017,-272.4583 124.4737,-282.9881 130.7844,-279.9589"/>
</g>
<!-- v13 -->
<g id="node14" class="node">
<title>v13</title>
<ellipse fill="none" stroke="#000000" cx="115.6897" cy="-204.6" rx="115.8798" ry="18"/>
<text text-anchor="middle" x="115.6897" y="-200.9" font-family="Times,serif" font-size="14.00" fill="#000000">MERGE_BLAST_RESULTS</text>
</g>
<!-- v12&#45;&gt;v13 -->
<g id="edge13" class="edge">
<title>v12&#45;&gt;v13</title>
<path fill="none" stroke="#000000" d="M121.3324,-265.2584C120.7371,-258.8597 119.4923,-245.4773 118.3229,-232.9065"/>
<polygon fill="#000000" stroke="#000000" points="121.7856,-232.3418 117.3743,-222.709 114.8157,-232.9902 121.7856,-232.3418"/>
</g>
<!-- v14 -->
<g id="node15" class="node">
<title>v14</title>
<ellipse fill="none" stroke="#000000" cx="135.6897" cy="-131.6" rx="90.1842" ry="18"/>
<text text-anchor="middle" x="135.6897" y="-127.9" font-family="Times,serif" font-size="14.00" fill="#000000">PROCESS_RESULTS</text>
</g>
<!-- v13&#45;&gt;v14 -->
<g id="edge14" class="edge">
<title>v13&#45;&gt;v14</title>
<path fill="none" stroke="#000000" d="M120.6336,-186.5551C122.8692,-178.3951 125.5623,-168.5652 128.049,-159.4887"/>
<polygon fill="#000000" stroke="#000000" points="131.4667,-160.2598 130.7335,-149.6904 124.7154,-158.4101 131.4667,-160.2598"/>
</g>
<!-- v21 -->
<g id="node16" class="node">
<title>v21</title>
<ellipse fill="none" stroke="#000000" cx="278.6897" cy="-58.6" rx="87.9851" ry="18"/>
<text text-anchor="middle" x="278.6897" y="-54.9" font-family="Times,serif" font-size="14.00" fill="#000000">BUILD_SUMMARY</text>
</g>
<!-- v14&#45;&gt;v21 -->
<g id="edge15" class="edge">
<title>v14&#45;&gt;v21</title>
<path fill="none" stroke="#000000" d="M168.8562,-114.6688C189.0705,-104.3497 215.0884,-91.0678 236.7272,-80.0215"/>
<polygon fill="#000000" stroke="#000000" points="238.3879,-83.1034 245.7031,-75.4393 235.2051,-76.8688 238.3879,-83.1034"/>
</g>
<!-- v22 -->
<g id="node23" class="node">
<title>v22</title>
<ellipse fill="#000000" stroke="#000000" cx="278.6897" cy="-1.8" rx="1.8" ry="1.8"/>
</g>
<!-- v21&#45;&gt;v22 -->
<g id="edge25" class="edge">
<title>v21&#45;&gt;v22</title>
<path fill="none" stroke="#000000" d="M278.6897,-40.3155C278.6897,-31.6139 278.6897,-21.4551 278.6897,-13.756"/>
<polygon fill="#000000" stroke="#000000" points="282.1898,-13.6036 278.6897,-3.6036 275.1898,-13.6037 282.1898,-13.6036"/>
</g>
<!-- v16 -->
<g id="node18" class="node">
<title>v16</title>
<ellipse fill="none" stroke="#000000" cx="297.6897" cy="-294.1" rx="3.5" ry="3.5"/>
<text text-anchor="middle" x="275.6897" y="-301.4" font-family="Times,serif" font-size="14.00" fill="#000000">collect</text>
</g>
<!-- v15&#45;&gt;v16 -->
<g id="edge17" class="edge">
<title>v15&#45;&gt;v16</title>
<path fill="none" stroke="#000000" d="M297.6897,-340.5041C297.6897,-333.8013 297.6897,-319.0742 297.6897,-307.9969"/>
<polygon fill="#000000" stroke="#000000" points="301.1898,-307.6633 297.6897,-297.6633 294.1898,-307.6633 301.1898,-307.6633"/>
</g>
<!-- v16&#45;&gt;v21 -->
<g id="edge18" class="edge">
<title>v16&#45;&gt;v21</title>
<path fill="none" stroke="#000000" d="M297.6897,-290.4613C297.6897,-282.2131 297.6897,-261.4611 297.6897,-244.1 297.6897,-244.1 297.6897,-244.1 297.6897,-131.6 297.6897,-116.2594 293.7115,-99.6732 289.3958,-86.1933"/>
<polygon fill="#000000" stroke="#000000" points="292.6471,-84.8847 286.09,-76.5628 286.0263,-87.1574 292.6471,-84.8847"/>
</g>
<!-- v18 -->
<g id="node20" class="node">
<title>v18</title>
<ellipse fill="none" stroke="#000000" cx="239.6897" cy="-244.1" rx="3.5" ry="3.5"/>
<text text-anchor="middle" x="217.6897" y="-251.4" font-family="Times,serif" font-size="14.00" fill="#000000">collect</text>
</g>
<!-- v17&#45;&gt;v18 -->
<g id="edge20" class="edge">
<title>v17&#45;&gt;v18</title>
<path fill="none" stroke="#000000" d="M202.0721,-291.122C207.6434,-284.1579 221.7515,-266.5228 231.0182,-254.9394"/>
<polygon fill="#000000" stroke="#000000" points="233.856,-256.9949 237.3699,-246.9998 228.3899,-252.622 233.856,-256.9949"/>
</g>
<!-- v18&#45;&gt;v21 -->
<g id="edge21" class="edge">
<title>v18&#45;&gt;v21</title>
<path fill="none" stroke="#000000" d="M240.434,-240.56C244.381,-221.7866 263.0499,-132.9897 272.7715,-86.7497"/>
<polygon fill="#000000" stroke="#000000" points="276.2368,-87.2782 274.8692,-76.772 269.3866,-85.8379 276.2368,-87.2782"/>
</g>
<!-- v20 -->
<g id="node22" class="node">
<title>v20</title>
<ellipse fill="none" stroke="#000000" cx="335.6897" cy="-423.1" rx="3.5" ry="3.5"/>
<text text-anchor="middle" x="313.6897" y="-430.4" font-family="Times,serif" font-size="14.00" fill="#000000">collect</text>
</g>
<!-- v19&#45;&gt;v20 -->
<g id="edge23" class="edge">
<title>v19&#45;&gt;v20</title>
<path fill="none" stroke="#000000" d="M329.0274,-498.2897C329.9995,-487.3187 332.8401,-455.2606 334.4813,-436.7385"/>
<polygon fill="#000000" stroke="#000000" points="337.9753,-436.9599 335.3716,-426.69 331.0026,-436.342 337.9753,-436.9599"/>
</g>
<!-- v20&#45;&gt;v21 -->
<g id="edge24" class="edge">
<title>v20&#45;&gt;v21</title>
<path fill="none" stroke="#000000" d="M335.6897,-419.4778C335.6897,-408.2725 335.6897,-373.1764 335.6897,-344.1 335.6897,-344.1 335.6897,-344.1 335.6897,-131.6 335.6897,-112.782 323.7774,-95.9133 310.8442,-83.1443"/>
<polygon fill="#000000" stroke="#000000" points="312.9258,-80.3038 303.1937,-76.1161 308.1901,-85.4588 312.9258,-80.3038"/>
</g>
</g>
</svg>
